<mxfile host="app.diagrams.net" modified="2024-02-13T10:38:13.386Z" agent="Mozilla/5.0 (Windows NT 10.0; Win64; x64) AppleWebKit/537.36 (KHTML, like Gecko) Chrome/119.0.0.0 Safari/537.36" etag="DbrwsuXOO648fPAJ3Z0b" version="23.1.0" type="device">
  <diagram name="INTERNET HIZMETI" id="bfe91b75-5d2c-26a0-9c1d-138518896778">
    <mxGraphModel dx="3490" dy="3813" grid="1" gridSize="10" guides="1" tooltips="1" connect="1" arrows="1" fold="1" page="1" pageScale="1" pageWidth="1100" pageHeight="850" background="none" math="0" shadow="0">
      <root>
        <mxCell id="0" />
        <mxCell id="1" parent="0" />
        <mxCell id="g6fDUBF4ePRbSYzPVH58-1" value="&lt;b&gt;&lt;font style=&quot;font-size: 18px;&quot;&gt;TUBITAK KIRALIK SUNUCU/LAR&lt;/font&gt;&lt;/b&gt;" style="rounded=1;whiteSpace=wrap;html=1;" vertex="1" parent="1">
          <mxGeometry x="-260" y="-1290" width="230" height="415" as="geometry" />
        </mxCell>
        <mxCell id="etY82uqSmDIKIFzfGN8P-110" style="rounded=0;orthogonalLoop=1;jettySize=auto;html=1;exitX=0.985;exitY=0.015;exitDx=0;exitDy=0;exitPerimeter=0;entryX=0.5;entryY=1;entryDx=0;entryDy=0;entryPerimeter=0;endArrow=none;endFill=0;strokeWidth=3;strokeColor=#000000;" parent="1" source="etY82uqSmDIKIFzfGN8P-152" target="etY82uqSmDIKIFzfGN8P-112" edge="1">
          <mxGeometry relative="1" as="geometry">
            <mxPoint x="-324.0688000000003" y="-1661.80625" as="sourcePoint" />
            <mxPoint x="-127.53360000000004" y="-1733.005" as="targetPoint" />
          </mxGeometry>
        </mxCell>
        <mxCell id="etY82uqSmDIKIFzfGN8P-111" style="rounded=0;orthogonalLoop=1;jettySize=auto;html=1;exitX=0.5;exitY=1;exitDx=0;exitDy=0;exitPerimeter=0;endArrow=none;endFill=0;strokeWidth=3;strokeColor=#000000;entryX=0.5;entryY=0;entryDx=0;entryDy=0;entryPerimeter=0;" parent="1" source="etY82uqSmDIKIFzfGN8P-152" target="njEEwOxU6uDRSXrjA67E-1" edge="1">
          <mxGeometry relative="1" as="geometry">
            <mxPoint x="-356.04000000000025" y="-1567" as="sourcePoint" />
            <mxPoint x="-326.82" y="-1470" as="targetPoint" />
          </mxGeometry>
        </mxCell>
        <mxCell id="etY82uqSmDIKIFzfGN8P-112" value="" style="points=[[0.015,0.015,0],[0.985,0.015,0],[0.985,0.985,0],[0.015,0.985,0],[0.25,0,0],[0.5,0,0],[0.75,0,0],[1,0.25,0],[1,0.5,0],[1,0.75,0],[0.75,1,0],[0.5,1,0],[0.25,1,0],[0,0.75,0],[0,0.5,0],[0,0.25,0]];verticalLabelPosition=bottom;html=1;verticalAlign=top;aspect=fixed;align=center;pointerEvents=1;shape=mxgraph.cisco19.rect;prIcon=firewall;fillColor=#FAFAFA;strokeColor=#FF0000;" parent="1" vertex="1">
          <mxGeometry x="-170" y="-1890" width="90" height="70" as="geometry" />
        </mxCell>
        <mxCell id="etY82uqSmDIKIFzfGN8P-117" value="" style="points=[[0.015,0.015,0],[0.985,0.015,0],[0.985,0.985,0],[0.015,0.985,0],[0.25,0,0],[0.5,0,0],[0.75,0,0],[1,0.25,0],[1,0.5,0],[1,0.75,0],[0.75,1,0],[0.5,1,0],[0.25,1,0],[0,0.75,0],[0,0.5,0],[0,0.25,0]];verticalLabelPosition=bottom;html=1;verticalAlign=top;aspect=fixed;align=center;pointerEvents=1;shape=mxgraph.cisco19.rect;prIcon=nexus_7k;fillColor=#FAFAFA;strokeColor=#005073;" parent="1" vertex="1">
          <mxGeometry x="-470" y="-1980" width="60" height="90" as="geometry" />
        </mxCell>
        <mxCell id="etY82uqSmDIKIFzfGN8P-119" value="BLF 3-4" style="text;strokeColor=default;align=center;fillColor=none;html=1;verticalAlign=middle;whiteSpace=wrap;rounded=1;fontSize=14;fontStyle=1;fontColor=#005073;" parent="1" vertex="1">
          <mxGeometry x="-170" y="-1610" width="70" height="30" as="geometry" />
        </mxCell>
        <mxCell id="etY82uqSmDIKIFzfGN8P-120" value="ESN-Router2" style="text;strokeColor=default;align=center;fillColor=none;html=1;verticalAlign=middle;whiteSpace=wrap;rounded=1;fontSize=14;fontStyle=1;fontColor=#005073;" parent="1" vertex="1">
          <mxGeometry x="-390" y="-1940" width="110" height="30" as="geometry" />
        </mxCell>
        <mxCell id="etY82uqSmDIKIFzfGN8P-121" style="rounded=0;orthogonalLoop=1;jettySize=auto;html=1;exitX=0.985;exitY=0.985;exitDx=0;exitDy=0;exitPerimeter=0;strokeWidth=3;endArrow=none;endFill=0;strokeColor=#000000;" parent="1" source="etY82uqSmDIKIFzfGN8P-122" target="etY82uqSmDIKIFzfGN8P-151" edge="1">
          <mxGeometry relative="1" as="geometry" />
        </mxCell>
        <mxCell id="etY82uqSmDIKIFzfGN8P-122" value="" style="points=[[0.015,0.015,0],[0.985,0.015,0],[0.985,0.985,0],[0.015,0.985,0],[0.25,0,0],[0.5,0,0],[0.75,0,0],[1,0.25,0],[1,0.5,0],[1,0.75,0],[0.75,1,0],[0.5,1,0],[0.25,1,0],[0,0.75,0],[0,0.5,0],[0,0.25,0]];verticalLabelPosition=bottom;html=1;verticalAlign=top;aspect=fixed;align=center;pointerEvents=1;shape=mxgraph.cisco19.rect;prIcon=nexus_9300;fillColor=#FAFAFA;strokeColor=#005073;" parent="1" vertex="1">
          <mxGeometry x="-370" y="-1360" width="70" height="70" as="geometry" />
        </mxCell>
        <mxCell id="etY82uqSmDIKIFzfGN8P-123" value="LEAF" style="text;strokeColor=default;align=center;fillColor=none;html=1;verticalAlign=middle;whiteSpace=wrap;rounded=1;fontSize=14;fontStyle=1;fontColor=#005073;" parent="1" vertex="1">
          <mxGeometry x="-450" y="-1340" width="70" height="30" as="geometry" />
        </mxCell>
        <mxCell id="etY82uqSmDIKIFzfGN8P-124" value="Server" style="text;strokeColor=default;align=center;fillColor=none;html=1;verticalAlign=middle;whiteSpace=wrap;rounded=1;fontStyle=1;fontSize=14;fontColor=#005073;" parent="1" vertex="1">
          <mxGeometry x="-180" y="-1170" width="60" height="30" as="geometry" />
        </mxCell>
        <mxCell id="A0OccZetmcL5YU9kN4BS-8" value="" style="edgeStyle=orthogonalEdgeStyle;rounded=0;orthogonalLoop=1;jettySize=auto;html=1;" parent="1" source="etY82uqSmDIKIFzfGN8P-128" target="etY82uqSmDIKIFzfGN8P-133" edge="1">
          <mxGeometry relative="1" as="geometry" />
        </mxCell>
        <mxCell id="etY82uqSmDIKIFzfGN8P-128" value="" style="points=[[0.5,0,0],[1,0.5,0],[0.5,1,0],[0,0.5,0],[0.145,0.145,0],[0.8555,0.145,0],[0.855,0.8555,0],[0.145,0.855,0]];verticalLabelPosition=bottom;html=1;verticalAlign=top;aspect=fixed;align=center;pointerEvents=1;shape=mxgraph.cisco19.rect;prIcon=router;fillColor=#FAFAFA;strokeColor=#005073;" parent="1" vertex="1">
          <mxGeometry x="-470" y="-2340" width="70" height="70" as="geometry" />
        </mxCell>
        <mxCell id="etY82uqSmDIKIFzfGN8P-129" style="rounded=0;orthogonalLoop=1;jettySize=auto;html=1;exitX=0.5;exitY=1;exitDx=0;exitDy=0;exitPerimeter=0;endArrow=none;endFill=0;strokeWidth=3;strokeColor=#000000;entryX=0.583;entryY=0;entryDx=0;entryDy=0;entryPerimeter=0;" parent="1" source="etY82uqSmDIKIFzfGN8P-128" target="etY82uqSmDIKIFzfGN8P-117" edge="1">
          <mxGeometry relative="1" as="geometry">
            <mxPoint x="-446.9500000000001" y="-2067" as="targetPoint" />
            <mxPoint x="-433.3700000000002" y="-2090" as="sourcePoint" />
          </mxGeometry>
        </mxCell>
        <mxCell id="etY82uqSmDIKIFzfGN8P-133" value="9121 - MPLS ROUTER" style="text;strokeColor=default;align=center;fillColor=none;html=1;verticalAlign=middle;whiteSpace=wrap;rounded=1;fontSize=14;fontStyle=1;fontColor=#005073;" parent="1" vertex="1">
          <mxGeometry x="-520" y="-2380" width="180" height="20" as="geometry" />
        </mxCell>
        <mxCell id="etY82uqSmDIKIFzfGN8P-151" value="" style="outlineConnect=0;fontColor=#232F3E;gradientColor=none;fillColor=#005073;strokeColor=none;dashed=0;verticalLabelPosition=bottom;verticalAlign=top;align=center;html=1;fontSize=12;fontStyle=0;aspect=fixed;pointerEvents=1;shape=mxgraph.aws4.traditional_server;" parent="1" vertex="1">
          <mxGeometry x="-180" y="-1280" width="50" height="100" as="geometry" />
        </mxCell>
        <mxCell id="etY82uqSmDIKIFzfGN8P-152" value="" style="points=[[0.015,0.015,0],[0.985,0.015,0],[0.985,0.985,0],[0.015,0.985,0],[0.25,0,0],[0.5,0,0],[0.75,0,0],[1,0.25,0],[1,0.5,0],[1,0.75,0],[0.75,1,0],[0.5,1,0],[0.25,1,0],[0,0.75,0],[0,0.5,0],[0,0.25,0]];verticalLabelPosition=bottom;html=1;verticalAlign=top;aspect=fixed;align=center;pointerEvents=1;shape=mxgraph.cisco19.rect;prIcon=nexus_7k;fillColor=#FAFAFA;strokeColor=#005073;" parent="1" vertex="1">
          <mxGeometry x="-260" y="-1660" width="70" height="100" as="geometry" />
        </mxCell>
        <mxCell id="etY82uqSmDIKIFzfGN8P-157" value="ESN-Router1" style="text;strokeColor=default;align=center;fillColor=none;html=1;verticalAlign=middle;whiteSpace=wrap;rounded=1;fontSize=14;fontStyle=1;fontColor=#005073;" parent="1" vertex="1">
          <mxGeometry x="-600" y="-1940" width="110" height="30" as="geometry" />
        </mxCell>
        <mxCell id="etY82uqSmDIKIFzfGN8P-159" value="BLF 1-2" style="text;strokeColor=default;align=center;fillColor=none;html=1;verticalAlign=middle;whiteSpace=wrap;rounded=1;fontSize=14;fontStyle=1;fontColor=#005073;" parent="1" vertex="1">
          <mxGeometry x="-550" y="-1620" width="70" height="30" as="geometry" />
        </mxCell>
        <mxCell id="etY82uqSmDIKIFzfGN8P-160" value="" style="points=[[0.015,0.015,0],[0.985,0.015,0],[0.985,0.985,0],[0.015,0.985,0],[0.25,0,0],[0.5,0,0],[0.75,0,0],[1,0.25,0],[1,0.5,0],[1,0.75,0],[0.75,1,0],[0.5,1,0],[0.25,1,0],[0,0.75,0],[0,0.5,0],[0,0.25,0]];verticalLabelPosition=bottom;html=1;verticalAlign=top;aspect=fixed;align=center;pointerEvents=1;shape=mxgraph.cisco19.rect;prIcon=nexus_7k;fillColor=#FAFAFA;strokeColor=#005073;" parent="1" vertex="1">
          <mxGeometry x="-470" y="-1660" width="70" height="100" as="geometry" />
        </mxCell>
        <mxCell id="etY82uqSmDIKIFzfGN8P-161" style="rounded=0;orthogonalLoop=1;jettySize=auto;html=1;exitX=0.5;exitY=1;exitDx=0;exitDy=0;exitPerimeter=0;endArrow=none;endFill=0;strokeWidth=3;strokeColor=#000000;entryX=0.5;entryY=0;entryDx=0;entryDy=0;entryPerimeter=0;" parent="1" source="etY82uqSmDIKIFzfGN8P-160" target="njEEwOxU6uDRSXrjA67E-1" edge="1">
          <mxGeometry relative="1" as="geometry">
            <mxPoint x="-176.82" y="-1549" as="sourcePoint" />
            <mxPoint x="-344.8050000000001" y="-1498.935" as="targetPoint" />
          </mxGeometry>
        </mxCell>
        <mxCell id="63FeuXn4cCz12aoCM_Hu-1" style="rounded=0;orthogonalLoop=1;jettySize=auto;html=1;exitX=0.015;exitY=0.015;exitDx=0;exitDy=0;exitPerimeter=0;endArrow=none;endFill=0;strokeWidth=3;strokeColor=#000000;entryX=0.985;entryY=0.015;entryDx=0;entryDy=0;entryPerimeter=0;" parent="1" source="etY82uqSmDIKIFzfGN8P-152" target="etY82uqSmDIKIFzfGN8P-160" edge="1">
          <mxGeometry relative="1" as="geometry">
            <mxPoint x="-393" y="-1622.18" as="sourcePoint" />
            <mxPoint x="-480" y="-1563.18" as="targetPoint" />
          </mxGeometry>
        </mxCell>
        <mxCell id="63FeuXn4cCz12aoCM_Hu-2" style="rounded=0;orthogonalLoop=1;jettySize=auto;html=1;endArrow=none;endFill=0;strokeWidth=3;strokeColor=#000000;entryX=0.5;entryY=1;entryDx=0;entryDy=0;entryPerimeter=0;exitX=0.427;exitY=0.001;exitDx=0;exitDy=0;exitPerimeter=0;" parent="1" source="etY82uqSmDIKIFzfGN8P-160" target="etY82uqSmDIKIFzfGN8P-117" edge="1">
          <mxGeometry relative="1" as="geometry">
            <mxPoint x="-396.82" y="-1690" as="sourcePoint" />
            <mxPoint x="-416.82" y="-1750.5" as="targetPoint" />
          </mxGeometry>
        </mxCell>
        <mxCell id="njEEwOxU6uDRSXrjA67E-1" value="" style="points=[[0.015,0.015,0],[0.985,0.015,0],[0.985,0.985,0],[0.015,0.985,0],[0.25,0,0],[0.5,0,0],[0.75,0,0],[1,0.25,0],[1,0.5,0],[1,0.75,0],[0.75,1,0],[0.5,1,0],[0.25,1,0],[0,0.75,0],[0,0.5,0],[0,0.25,0]];verticalLabelPosition=bottom;html=1;verticalAlign=top;aspect=fixed;align=center;pointerEvents=1;shape=mxgraph.cisco19.rect;prIcon=nexus_9300;fillColor=#FAFAFA;strokeColor=#005073;" parent="1" vertex="1">
          <mxGeometry x="-370" y="-1500" width="70" height="70" as="geometry" />
        </mxCell>
        <mxCell id="njEEwOxU6uDRSXrjA67E-2" style="rounded=0;orthogonalLoop=1;jettySize=auto;html=1;exitX=0.5;exitY=1;exitDx=0;exitDy=0;exitPerimeter=0;endArrow=none;endFill=0;strokeWidth=3;strokeColor=#000000;entryX=0.5;entryY=0;entryDx=0;entryDy=0;entryPerimeter=0;" parent="1" source="njEEwOxU6uDRSXrjA67E-1" target="etY82uqSmDIKIFzfGN8P-122" edge="1">
          <mxGeometry relative="1" as="geometry">
            <mxPoint x="-273.82" y="-1412" as="sourcePoint" />
            <mxPoint x="-174.82" y="-1352" as="targetPoint" />
          </mxGeometry>
        </mxCell>
        <mxCell id="njEEwOxU6uDRSXrjA67E-3" value="SPINE" style="text;strokeColor=default;align=center;fillColor=none;html=1;verticalAlign=middle;whiteSpace=wrap;rounded=1;fontSize=14;fontStyle=1;fontColor=#005073;" parent="1" vertex="1">
          <mxGeometry x="-450" y="-1480" width="70" height="30" as="geometry" />
        </mxCell>
        <mxCell id="A0OccZetmcL5YU9kN4BS-3" value="&lt;b&gt;172.31.252.64&lt;/b&gt;" style="text;html=1;align=center;verticalAlign=middle;resizable=0;points=[];autosize=1;strokeColor=default;fillColor=none;rounded=1;" parent="1" vertex="1">
          <mxGeometry x="-600" y="-2320" width="100" height="30" as="geometry" />
        </mxCell>
        <mxCell id="A0OccZetmcL5YU9kN4BS-4" value="&lt;b&gt;172.31.252.68&lt;/b&gt;" style="text;html=1;align=center;verticalAlign=middle;resizable=0;points=[];autosize=1;strokeColor=default;fillColor=none;rounded=1;" parent="1" vertex="1">
          <mxGeometry x="-380" y="-2320" width="100" height="30" as="geometry" />
        </mxCell>
        <mxCell id="A0OccZetmcL5YU9kN4BS-6" value="&lt;b&gt;172.31.252.65&lt;/b&gt;" style="text;html=1;align=center;verticalAlign=middle;resizable=0;points=[];autosize=1;strokeColor=default;fillColor=none;rounded=1;" parent="1" vertex="1">
          <mxGeometry x="-600" y="-2000" width="100" height="30" as="geometry" />
        </mxCell>
        <mxCell id="A0OccZetmcL5YU9kN4BS-7" value="&lt;b&gt;172.31.252.69&lt;/b&gt;" style="text;html=1;align=center;verticalAlign=middle;resizable=0;points=[];autosize=1;strokeColor=default;fillColor=none;rounded=1;" parent="1" vertex="1">
          <mxGeometry x="-380" y="-2000" width="100" height="30" as="geometry" />
        </mxCell>
        <mxCell id="bT-7sdMWma4yfhI42xjg-5" value="" style="curved=1;endArrow=classic;html=1;rounded=0;strokeWidth=3;fillColor=#d5e8d4;strokeColor=#82b366;" parent="1" edge="1">
          <mxGeometry width="50" height="50" relative="1" as="geometry">
            <mxPoint x="-184.42" y="-1220.86" as="sourcePoint" />
            <mxPoint x="-326.82" y="-1280" as="targetPoint" />
            <Array as="points">
              <mxPoint x="-230" y="-1240" />
            </Array>
          </mxGeometry>
        </mxCell>
        <mxCell id="bT-7sdMWma4yfhI42xjg-6" value="" style="endArrow=classic;html=1;rounded=0;strokeWidth=3;fillColor=#d5e8d4;strokeColor=#82b366;" parent="1" edge="1">
          <mxGeometry width="50" height="50" relative="1" as="geometry">
            <mxPoint x="-346.82" y="-1370" as="sourcePoint" />
            <mxPoint x="-346.82" y="-1422" as="targetPoint" />
          </mxGeometry>
        </mxCell>
        <mxCell id="bT-7sdMWma4yfhI42xjg-7" value="" style="endArrow=classic;html=1;rounded=0;strokeWidth=3;fillColor=#d5e8d4;strokeColor=#82b366;exitX=-0.031;exitY=-0.066;exitDx=0;exitDy=0;exitPerimeter=0;" parent="1" source="njEEwOxU6uDRSXrjA67E-1" edge="1">
          <mxGeometry width="50" height="50" relative="1" as="geometry">
            <mxPoint x="-376.82" y="-1508" as="sourcePoint" />
            <mxPoint x="-442" y="-1547.74" as="targetPoint" />
          </mxGeometry>
        </mxCell>
        <mxCell id="bT-7sdMWma4yfhI42xjg-8" value="" style="endArrow=classic;html=1;rounded=0;fillColor=#d5e8d4;strokeColor=#82b366;strokeWidth=3;" parent="1" edge="1">
          <mxGeometry width="50" height="50" relative="1" as="geometry">
            <mxPoint x="-460" y="-1670" as="sourcePoint" />
            <mxPoint x="-460" y="-1870" as="targetPoint" />
          </mxGeometry>
        </mxCell>
        <mxCell id="bT-7sdMWma4yfhI42xjg-9" value="" style="endArrow=classic;html=1;rounded=0;strokeWidth=3;fillColor=#d5e8d4;strokeColor=#82b366;" parent="1" edge="1">
          <mxGeometry width="50" height="50" relative="1" as="geometry">
            <mxPoint x="-450.48" y="-1980" as="sourcePoint" />
            <mxPoint x="-450.48" y="-2260" as="targetPoint" />
          </mxGeometry>
        </mxCell>
        <mxCell id="bT-7sdMWma4yfhI42xjg-10" value="" style="endArrow=classic;html=1;rounded=0;fillColor=#dae8fc;strokeColor=#6c8ebf;strokeWidth=3;" parent="1" edge="1">
          <mxGeometry width="50" height="50" relative="1" as="geometry">
            <mxPoint x="-186.82" y="-1270" as="sourcePoint" />
            <mxPoint x="-286.82" y="-1310" as="targetPoint" />
          </mxGeometry>
        </mxCell>
        <mxCell id="bT-7sdMWma4yfhI42xjg-11" value="" style="endArrow=classic;html=1;rounded=0;fillColor=#dae8fc;strokeColor=#6c8ebf;strokeWidth=3;" parent="1" edge="1">
          <mxGeometry width="50" height="50" relative="1" as="geometry">
            <mxPoint x="-316.82" y="-1370" as="sourcePoint" />
            <mxPoint x="-316.82" y="-1420" as="targetPoint" />
          </mxGeometry>
        </mxCell>
        <mxCell id="bT-7sdMWma4yfhI42xjg-12" value="" style="endArrow=classic;html=1;rounded=0;fillColor=#dae8fc;strokeColor=#6c8ebf;strokeWidth=3;" parent="1" edge="1">
          <mxGeometry width="50" height="50" relative="1" as="geometry">
            <mxPoint x="-296.82" y="-1500" as="sourcePoint" />
            <mxPoint x="-216.82" y="-1550" as="targetPoint" />
          </mxGeometry>
        </mxCell>
        <mxCell id="bT-7sdMWma4yfhI42xjg-13" value="" style="endArrow=classic;html=1;rounded=0;fillColor=#dae8fc;strokeColor=#6c8ebf;strokeWidth=3;" parent="1" edge="1">
          <mxGeometry width="50" height="50" relative="1" as="geometry">
            <mxPoint x="-180" y="-1650" as="sourcePoint" />
            <mxPoint x="-110" y="-1820" as="targetPoint" />
          </mxGeometry>
        </mxCell>
        <mxCell id="bT-7sdMWma4yfhI42xjg-15" value="" style="endArrow=classic;html=1;rounded=0;fillColor=#dae8fc;strokeColor=#6c8ebf;strokeWidth=3;" parent="1" edge="1">
          <mxGeometry width="50" height="50" relative="1" as="geometry">
            <mxPoint x="-150" y="-1810" as="sourcePoint" />
            <mxPoint x="-426.46999999999997" y="-1870" as="targetPoint" />
            <Array as="points">
              <mxPoint x="-200" y="-1670" />
              <mxPoint x="-426" y="-1669" />
            </Array>
          </mxGeometry>
        </mxCell>
        <mxCell id="bT-7sdMWma4yfhI42xjg-16" value="" style="endArrow=classic;html=1;rounded=0;fillColor=#dae8fc;strokeColor=#6c8ebf;strokeWidth=3;" parent="1" edge="1">
          <mxGeometry width="50" height="50" relative="1" as="geometry">
            <mxPoint x="-416.82" y="-1980" as="sourcePoint" />
            <mxPoint x="-416.93" y="-2257" as="targetPoint" />
          </mxGeometry>
        </mxCell>
        <mxCell id="bT-7sdMWma4yfhI42xjg-55" value="TT FW" style="text;strokeColor=default;align=center;fillColor=none;html=1;verticalAlign=middle;whiteSpace=wrap;rounded=1;fontStyle=1;fontColor=#005073;fontSize=15;" parent="1" vertex="1">
          <mxGeometry x="-50" y="-1880" width="60" height="30" as="geometry" />
        </mxCell>
        <mxCell id="bT-7sdMWma4yfhI42xjg-56" value="Server GW" style="text;strokeColor=default;align=center;fillColor=none;html=1;verticalAlign=middle;whiteSpace=wrap;rounded=1;fontColor=#3333FF;fontStyle=1;fontSize=16;" parent="1" vertex="1">
          <mxGeometry x="-70" y="-1840" width="100" height="20" as="geometry" />
        </mxCell>
        <mxCell id="mmahy4eMZE2oeSdNCSJe-1" value="&lt;font style=&quot;font-size: 24px;&quot;&gt;ınternet-9121&lt;/font&gt;" style="ellipse;shape=cloud;whiteSpace=wrap;html=1;" vertex="1" parent="1">
          <mxGeometry x="-567" y="-2477" width="240" height="100" as="geometry" />
        </mxCell>
        <mxCell id="mmahy4eMZE2oeSdNCSJe-2" value="&lt;b&gt;&lt;font style=&quot;font-size: 18px;&quot;&gt;KULTURA KABİN&amp;nbsp; [FW,SW,SERVER VB.]&lt;/font&gt;&lt;/b&gt;" style="rounded=1;whiteSpace=wrap;html=1;" vertex="1" parent="1">
          <mxGeometry x="-900" y="-1290" width="230" height="415" as="geometry" />
        </mxCell>
        <mxCell id="mmahy4eMZE2oeSdNCSJe-3" style="rounded=0;orthogonalLoop=1;jettySize=auto;html=1;exitX=0.985;exitY=0.985;exitDx=0;exitDy=0;exitPerimeter=0;strokeWidth=3;endArrow=none;endFill=0;strokeColor=#000000;entryX=0.015;entryY=0.985;entryDx=0;entryDy=0;entryPerimeter=0;" edge="1" parent="1" target="etY82uqSmDIKIFzfGN8P-122">
          <mxGeometry relative="1" as="geometry">
            <mxPoint x="-670" y="-1240" as="sourcePoint" />
            <mxPoint x="-549" y="-1189" as="targetPoint" />
          </mxGeometry>
        </mxCell>
        <mxCell id="mmahy4eMZE2oeSdNCSJe-4" value="" style="points=[[0.015,0.015,0],[0.985,0.015,0],[0.985,0.985,0],[0.015,0.985,0],[0.25,0,0],[0.5,0,0],[0.75,0,0],[1,0.25,0],[1,0.5,0],[1,0.75,0],[0.75,1,0],[0.5,1,0],[0.25,1,0],[0,0.75,0],[0,0.5,0],[0,0.25,0]];verticalLabelPosition=bottom;html=1;verticalAlign=top;aspect=fixed;align=center;pointerEvents=1;shape=mxgraph.cisco19.rect;prIcon=firewall;fillColor=#FAFAFA;strokeColor=#FF0000;" vertex="1" parent="1">
          <mxGeometry x="-780" y="-1260" width="90" height="70" as="geometry" />
        </mxCell>
        <mxCell id="mmahy4eMZE2oeSdNCSJe-5" value="" style="points=[[0.015,0.015,0],[0.985,0.015,0],[0.985,0.985,0],[0.015,0.985,0],[0.25,0,0],[0.5,0,0],[0.75,0,0],[1,0.25,0],[1,0.5,0],[1,0.75,0],[0.75,1,0],[0.5,1,0],[0.25,1,0],[0,0.75,0],[0,0.5,0],[0,0.25,0]];verticalLabelPosition=bottom;html=1;verticalAlign=top;aspect=fixed;align=center;pointerEvents=1;shape=mxgraph.cisco19.rect;prIcon=nexus_7k;fillColor=#FAFAFA;strokeColor=#005073;" vertex="1" parent="1">
          <mxGeometry x="-870" y="-1260" width="70" height="100" as="geometry" />
        </mxCell>
        <mxCell id="mmahy4eMZE2oeSdNCSJe-6" value="" style="endArrow=classic;html=1;rounded=0;strokeWidth=3;fillColor=#d5e8d4;strokeColor=#82b366;" edge="1" parent="1">
          <mxGeometry width="50" height="50" relative="1" as="geometry">
            <mxPoint x="-600" y="-1268" as="sourcePoint" />
            <mxPoint x="-530" y="-1280" as="targetPoint" />
          </mxGeometry>
        </mxCell>
        <mxCell id="mmahy4eMZE2oeSdNCSJe-7" value="" style="endArrow=classic;html=1;rounded=0;fillColor=#dae8fc;strokeColor=#6c8ebf;strokeWidth=3;" edge="1" parent="1">
          <mxGeometry width="50" height="50" relative="1" as="geometry">
            <mxPoint x="-530" y="-1240" as="sourcePoint" />
            <mxPoint x="-600" y="-1240" as="targetPoint" />
          </mxGeometry>
        </mxCell>
        <mxCell id="mmahy4eMZE2oeSdNCSJe-8" value="" style="points=[[0.5,0,0],[1,0.5,0],[0.5,1,0],[0,0.5,0],[0.145,0.145,0],[0.8555,0.145,0],[0.855,0.8555,0],[0.145,0.855,0]];verticalLabelPosition=bottom;html=1;verticalAlign=top;aspect=fixed;align=center;pointerEvents=1;shape=mxgraph.cisco19.rect;prIcon=router;fillColor=#FAFAFA;strokeColor=#005073;" vertex="1" parent="1">
          <mxGeometry x="160" y="-1640" width="70" height="70" as="geometry" />
        </mxCell>
        <mxCell id="mmahy4eMZE2oeSdNCSJe-9" value="&lt;font style=&quot;font-size: 24px;&quot;&gt;TTVPN MPLS&lt;/font&gt;" style="text;strokeColor=default;align=center;fillColor=none;html=1;verticalAlign=middle;whiteSpace=wrap;rounded=1;fontSize=14;fontStyle=1;fontColor=#005073;" vertex="1" parent="1">
          <mxGeometry x="110" y="-1680" width="180" height="20" as="geometry" />
        </mxCell>
        <mxCell id="mmahy4eMZE2oeSdNCSJe-10" value="" style="endArrow=none;html=1;rounded=0;" edge="1" parent="1">
          <mxGeometry width="50" height="50" relative="1" as="geometry">
            <mxPoint x="-400" y="-1290" as="sourcePoint" />
            <mxPoint x="-350" y="-1340" as="targetPoint" />
          </mxGeometry>
        </mxCell>
        <mxCell id="mmahy4eMZE2oeSdNCSJe-11" value="" style="endArrow=none;html=1;rounded=0;entryX=0;entryY=0.29;entryDx=0;entryDy=0;entryPerimeter=0;" edge="1" parent="1" target="mmahy4eMZE2oeSdNCSJe-8">
          <mxGeometry width="50" height="50" relative="1" as="geometry">
            <mxPoint x="-190" y="-1620" as="sourcePoint" />
            <mxPoint x="-140" y="-1670" as="targetPoint" />
          </mxGeometry>
        </mxCell>
        <mxCell id="mmahy4eMZE2oeSdNCSJe-12" value="KULTURA FW" style="text;strokeColor=default;align=center;fillColor=none;html=1;verticalAlign=middle;whiteSpace=wrap;rounded=1;fontStyle=1;fontColor=#005073;fontSize=15;" vertex="1" parent="1">
          <mxGeometry x="-790" y="-1180" width="90" height="40" as="geometry" />
        </mxCell>
      </root>
    </mxGraphModel>
  </diagram>
</mxfile>
